<svg xmlns="http://www.w3.org/2000/svg" viewBox="0 0 96 96" role="img" aria-label="Parrish Projects logo option 07">
  <title>Parrish Projects logo option 07: Shield cut</title>

  <defs>
    <linearGradient id="bg" x1="10" y1="6" x2="86" y2="94" gradientUnits="userSpaceOnUse">
      <stop offset="0" stop-color="#3A2818"/>
      <stop offset="0.52" stop-color="#17120D"/>
      <stop offset="1" stop-color="#070604"/>
    </linearGradient>
    <radialGradient id="glow" cx="72" cy="22" r="70" gradientUnits="userSpaceOnUse">
      <stop offset="0" stop-color="#FF7743" stop-opacity=".36"/>
      <stop offset=".45" stop-color="#E94A1C" stop-opacity=".10"/>
      <stop offset="1" stop-color="#E94A1C" stop-opacity="0"/>
    </radialGradient>
    <linearGradient id="accent" x1="36" y1="24" x2="82" y2="74" gradientUnits="userSpaceOnUse">
      <stop offset="0" stop-color="#FF8A52"/>
      <stop offset="1" stop-color="#C73912"/>
    </linearGradient>
    <filter id="shadow" x="-24%" y="-24%" width="148%" height="148%" color-interpolation-filters="sRGB">
      <feDropShadow dx="0" dy="12" stdDeviation="8" flood-color="#120F0A" flood-opacity=".32"/>
    </filter>
  </defs>

  <rect x="5" y="5" width="86" height="86" rx="24" fill="url(#bg)" filter="url(#shadow)"/>
  <rect x="5" y="5" width="86" height="86" rx="24" fill="url(#glow)"/>
  <rect x="6" y="6" width="84" height="84" rx="23" fill="none" stroke="#F4EEE3" stroke-opacity=".14" stroke-width="1.5"/>

  <path d="M48 18L75 27V47C75 62 64.5 73.5 48 80C31.5 73.5 21 62 21 47V27L48 18Z" fill="#F4EEE3" opacity=".10" stroke="#F4EEE3" stroke-opacity=".28" stroke-width="1.5"/>
  <path d="M29 72V27H49C61.5 27 69 33.8 69 44C69 54.2 61.5 61 49 61H40" fill="none" stroke="#F4EEE3" stroke-width="8.7" stroke-linecap="round" stroke-linejoin="round"/>
  <path d="M49 72V34H62C72 34 78.5 39.4 78.5 47.7C78.5 56 72 61.5 62 61.5H57" fill="none" stroke="url(#accent)" stroke-width="8.7" stroke-linecap="round" stroke-linejoin="round"/>
</svg>