<svg xmlns="http://www.w3.org/2000/svg" viewBox="0 0 96 96" role="img" aria-label="Parrish Projects logo option 08">
  <title>Parrish Projects logo option 08: Rounded lowercase feel</title>

  <defs>
    <linearGradient id="bg" x1="10" y1="6" x2="86" y2="94" gradientUnits="userSpaceOnUse">
      <stop offset="0" stop-color="#3A2818"/>
      <stop offset="0.52" stop-color="#17120D"/>
      <stop offset="1" stop-color="#070604"/>
    </linearGradient>
    <radialGradient id="glow" cx="72" cy="22" r="70" gradientUnits="userSpaceOnUse">
      <stop offset="0" stop-color="#FF7743" stop-opacity=".36"/>
      <stop offset=".45" stop-color="#E94A1C" stop-opacity=".10"/>
      <stop offset="1" stop-color="#E94A1C" stop-opacity="0"/>
    </radialGradient>
    <linearGradient id="accent" x1="36" y1="24" x2="82" y2="74" gradientUnits="userSpaceOnUse">
      <stop offset="0" stop-color="#FF8A52"/>
      <stop offset="1" stop-color="#C73912"/>
    </linearGradient>
    <filter id="shadow" x="-24%" y="-24%" width="148%" height="148%" color-interpolation-filters="sRGB">
      <feDropShadow dx="0" dy="12" stdDeviation="8" flood-color="#120F0A" flood-opacity=".32"/>
    </filter>
  </defs>

  <rect x="5" y="5" width="86" height="86" rx="24" fill="url(#bg)" filter="url(#shadow)"/>
  <rect x="5" y="5" width="86" height="86" rx="24" fill="url(#glow)"/>
  <rect x="6" y="6" width="84" height="84" rx="23" fill="none" stroke="#F4EEE3" stroke-opacity=".14" stroke-width="1.5"/>

  <path d="M28 75V39C28 30.2 34.6 24 44 24H50C62.8 24 70.5 31.4 70.5 43C70.5 54.6 62.8 62 50 62H40" fill="none" stroke="#F4EEE3" stroke-width="9.4" stroke-linecap="round" stroke-linejoin="round"/>
  <path d="M49 75V45C49 36.6 55.1 31 64 31C74.2 31 81 37.2 81 46.8C81 56.4 74.2 62.8 64 62.8H58" fill="none" stroke="url(#accent)" stroke-width="9" stroke-linecap="round" stroke-linejoin="round"/>
  <circle cx="28" cy="39" r="4.6" fill="#F4EEE3"/><circle cx="49" cy="45" r="4.4" fill="#FF7A45"/>
</svg>