<svg xmlns="http://www.w3.org/2000/svg" viewBox="0 0 96 96" role="img" aria-label="Parrish Projects logo option 03">
  <title>Parrish Projects logo option 03: Stacked monogram</title>

  <defs>
    <linearGradient id="bg" x1="10" y1="6" x2="86" y2="94" gradientUnits="userSpaceOnUse">
      <stop offset="0" stop-color="#3A2818"/>
      <stop offset="0.52" stop-color="#17120D"/>
      <stop offset="1" stop-color="#070604"/>
    </linearGradient>
    <radialGradient id="glow" cx="72" cy="22" r="70" gradientUnits="userSpaceOnUse">
      <stop offset="0" stop-color="#FF7743" stop-opacity=".36"/>
      <stop offset=".45" stop-color="#E94A1C" stop-opacity=".10"/>
      <stop offset="1" stop-color="#E94A1C" stop-opacity="0"/>
    </radialGradient>
    <linearGradient id="accent" x1="36" y1="24" x2="82" y2="74" gradientUnits="userSpaceOnUse">
      <stop offset="0" stop-color="#FF8A52"/>
      <stop offset="1" stop-color="#C73912"/>
    </linearGradient>
    <filter id="shadow" x="-24%" y="-24%" width="148%" height="148%" color-interpolation-filters="sRGB">
      <feDropShadow dx="0" dy="12" stdDeviation="8" flood-color="#120F0A" flood-opacity=".32"/>
    </filter>
  </defs>

  <rect x="5" y="5" width="86" height="86" rx="24" fill="url(#bg)" filter="url(#shadow)"/>
  <rect x="5" y="5" width="86" height="86" rx="24" fill="url(#glow)"/>
  <rect x="6" y="6" width="84" height="84" rx="23" fill="none" stroke="#F4EEE3" stroke-opacity=".14" stroke-width="1.5"/>

  <path d="M26 55V25H49C60.5 25 67.5 30.7 67.5 39.5C67.5 48.4 60.5 54 49 54H38" fill="none" stroke="#F4EEE3" stroke-width="8.6" stroke-linecap="round" stroke-linejoin="round"/>
  <path d="M40 75V45H63C74.2 45 81 50.8 81 59.6C81 68.2 74.2 74 63 74H52" fill="none" stroke="url(#accent)" stroke-width="8.6" stroke-linecap="round" stroke-linejoin="round"/>
  <circle cx="26" cy="25" r="4.2" fill="#F4EEE3"/><circle cx="40" cy="45" r="4.2" fill="#FF7A45"/>
</svg>