<svg xmlns="http://www.w3.org/2000/svg" viewBox="0 0 96 96" role="img" aria-label="Parrish Projects logo option 09">
  <title>Parrish Projects logo option 09: Bold favicon</title>

  <defs>
    <linearGradient id="bg" x1="10" y1="6" x2="86" y2="94" gradientUnits="userSpaceOnUse">
      <stop offset="0" stop-color="#3A2818"/>
      <stop offset="0.52" stop-color="#17120D"/>
      <stop offset="1" stop-color="#070604"/>
    </linearGradient>
    <radialGradient id="glow" cx="72" cy="22" r="70" gradientUnits="userSpaceOnUse">
      <stop offset="0" stop-color="#FF7743" stop-opacity=".36"/>
      <stop offset=".45" stop-color="#E94A1C" stop-opacity=".10"/>
      <stop offset="1" stop-color="#E94A1C" stop-opacity="0"/>
    </radialGradient>
    <linearGradient id="accent" x1="36" y1="24" x2="82" y2="74" gradientUnits="userSpaceOnUse">
      <stop offset="0" stop-color="#FF8A52"/>
      <stop offset="1" stop-color="#C73912"/>
    </linearGradient>
    <filter id="shadow" x="-24%" y="-24%" width="148%" height="148%" color-interpolation-filters="sRGB">
      <feDropShadow dx="0" dy="12" stdDeviation="8" flood-color="#120F0A" flood-opacity=".32"/>
    </filter>
  </defs>

  <rect x="5" y="5" width="86" height="86" rx="24" fill="url(#bg)" filter="url(#shadow)"/>
  <rect x="5" y="5" width="86" height="86" rx="24" fill="url(#glow)"/>
  <rect x="6" y="6" width="84" height="84" rx="23" fill="none" stroke="#F4EEE3" stroke-opacity=".14" stroke-width="1.5"/>

  <path d="M25 74V23H50C64.5 23 73 31.4 73 43.7C73 56.1 64.5 64 50 64H40" fill="none" stroke="#F4EEE3" stroke-width="10.8" stroke-linecap="round" stroke-linejoin="round"/>
  <path d="M51 74V30H64C75 30 82.5 36.8 82.5 47C82.5 57.2 75 64 64 64H60" fill="none" stroke="url(#accent)" stroke-width="10.4" stroke-linecap="round" stroke-linejoin="round"/>
  <circle cx="25" cy="23" r="5.3" fill="#F4EEE3"/><circle cx="51" cy="30" r="5.1" fill="#FF7A45"/>
</svg>