<svg xmlns="http://www.w3.org/2000/svg" viewBox="0 0 96 96" role="img" aria-label="Parrish Projects">
  <title>Parrish Projects</title>
  <defs>
    <linearGradient id="pp-bg" x1="14" y1="8" x2="82" y2="90" gradientUnits="userSpaceOnUse">
      <stop offset="0" stop-color="#332718"/>
      <stop offset="0.48" stop-color="#17120d"/>
      <stop offset="1" stop-color="#080706"/>
    </linearGradient>
    <radialGradient id="pp-glow" cx="70" cy="24" r="62" gradientUnits="userSpaceOnUse">
      <stop offset="0" stop-color="#EB4D22" stop-opacity="0.30"/>
      <stop offset="0.46" stop-color="#EB4D22" stop-opacity="0.08"/>
      <stop offset="1" stop-color="#EB4D22" stop-opacity="0"/>
    </radialGradient>
    <linearGradient id="pp-accent" x1="46" y1="28" x2="80" y2="70" gradientUnits="userSpaceOnUse">
      <stop offset="0" stop-color="#FF7A45"/>
      <stop offset="1" stop-color="#B8350F"/>
    </linearGradient>
    <filter id="pp-shadow" x="-20%" y="-20%" width="140%" height="140%" color-interpolation-filters="sRGB">
      <feDropShadow dx="0" dy="10" stdDeviation="8" flood-color="#16130E" flood-opacity="0.28"/>
    </filter>
  </defs>
  <rect x="5" y="5" width="86" height="86" rx="24" fill="url(#pp-bg)" filter="url(#pp-shadow)"/>
  <rect x="5" y="5" width="86" height="86" rx="24" fill="url(#pp-glow)"/>
  <rect x="6" y="6" width="84" height="84" rx="23" fill="none" stroke="#F3EEE4" stroke-opacity="0.13" stroke-width="1.5"/>
  <path d="M27 72V24.5H48.5C61.5 24.5 69.5 31.9 69.5 43C69.5 54.2 61.5 61.6 48.5 61.6H38.2" fill="none" stroke="#F3EEE4" stroke-width="9.2" stroke-linecap="round" stroke-linejoin="round"/>
  <path d="M47.5 72V31.2H62.8C73 31.2 79.2 37.2 79.2 46.2C79.2 55.3 73 61.2 62.8 61.2H57.6" fill="none" stroke="url(#pp-accent)" stroke-width="8.4" stroke-linecap="round" stroke-linejoin="round"/>
  <circle cx="28" cy="24.5" r="4.6" fill="#F3EEE4"/>
  <circle cx="48.2" cy="31.2" r="4.2" fill="#FF7A45"/>
</svg>
