<svg xmlns="http://www.w3.org/2000/svg" viewBox="0 0 660 132" role="img" aria-label="Parrish Projects">
  <title>Parrish Projects</title>
  <defs>
    <linearGradient id="pp-bg" x1="24" y1="20" x2="104" y2="116" gradientUnits="userSpaceOnUse">
      <stop offset="0" stop-color="#332718"/>
      <stop offset="0.48" stop-color="#17120d"/>
      <stop offset="1" stop-color="#080706"/>
    </linearGradient>
    <radialGradient id="pp-glow" cx="88" cy="34" r="70" gradientUnits="userSpaceOnUse">
      <stop offset="0" stop-color="#EB4D22" stop-opacity="0.30"/>
      <stop offset="0.46" stop-color="#EB4D22" stop-opacity="0.08"/>
      <stop offset="1" stop-color="#EB4D22" stop-opacity="0"/>
    </radialGradient>
    <linearGradient id="pp-accent" x1="64" y1="45" x2="98" y2="87" gradientUnits="userSpaceOnUse">
      <stop offset="0" stop-color="#FF7A45"/>
      <stop offset="1" stop-color="#B8350F"/>
    </linearGradient>
  </defs>
  <g transform="translate(10 18)">
    <rect x="0" y="0" width="96" height="96" rx="26" fill="url(#pp-bg)"/>
    <rect x="0" y="0" width="96" height="96" rx="26" fill="url(#pp-glow)"/>
    <rect x="1.5" y="1.5" width="93" height="93" rx="24.5" fill="none" stroke="#F3EEE4" stroke-opacity="0.13" stroke-width="2"/>
    <path d="M27 72V24.5H48.5C61.5 24.5 69.5 31.9 69.5 43C69.5 54.2 61.5 61.6 48.5 61.6H38.2" fill="none" stroke="#F3EEE4" stroke-width="9.2" stroke-linecap="round" stroke-linejoin="round"/>
    <path d="M47.5 72V31.2H62.8C73 31.2 79.2 37.2 79.2 46.2C79.2 55.3 73 61.2 62.8 61.2H57.6" fill="none" stroke="url(#pp-accent)" stroke-width="8.4" stroke-linecap="round" stroke-linejoin="round"/>
    <circle cx="28" cy="24.5" r="4.6" fill="#F3EEE4"/>
    <circle cx="48.2" cy="31.2" r="4.2" fill="#FF7A45"/>
  </g>
  <text x="136" y="62" font-family="Fraunces, Georgia, 'Times New Roman', serif" font-size="42" font-weight="650" letter-spacing="-.8" fill="#16130E">Parrish Projects</text>
  <text x="139" y="92" font-family="Inter, Avenir Next, Helvetica Neue, Arial, sans-serif" font-size="13" font-weight="700" letter-spacing="3.2" fill="#837C70">SYSTEMS STUDIO</text>
</svg>
