<svg xmlns="http://www.w3.org/2000/svg" viewBox="0 0 96 96" role="img" aria-label="Parrish Projects refined website logo 04">
  <title>Parrish Projects refined website logo 04: Strong favicon version</title>
  <defs>
    <linearGradient id="bg" x1="12" y1="7" x2="86" y2="92" gradientUnits="userSpaceOnUse">
      <stop offset="0" stop-color="#331412"/>
      <stop offset="0.44" stop-color="#120B09"/>
      <stop offset="1" stop-color="#050403"/>
    </linearGradient>
    <radialGradient id="glow" cx="72" cy="20" r="72" gradientUnits="userSpaceOnUse">
      <stop offset="0" stop-color="#FF372F" stop-opacity="0.42"/>
      <stop offset="0.48" stop-color="#C71313" stop-opacity="0.11"/>
      <stop offset="1" stop-color="#C71313" stop-opacity="0"/>
    </radialGradient>
    <linearGradient id="red" x1="26" y1="20" x2="78" y2="76" gradientUnits="userSpaceOnUse">
      <stop offset="0" stop-color="#FF4A3F"/>
      <stop offset="1" stop-color="#B10E0E"/>
    </linearGradient>
    <filter id="softShadow" x="-24%" y="-24%" width="148%" height="148%" color-interpolation-filters="sRGB">
      <feDropShadow dx="0" dy="13" stdDeviation="8" flood-color="#090504" flood-opacity="0.35"/>
    </filter>
  </defs>
  <rect x="5" y="5" width="86" height="86" rx="24" fill="url(#bg)" filter="url(#softShadow)"/>
  <rect x="5" y="5" width="86" height="86" rx="24" fill="url(#glow)"/>
  <rect x="6.25" y="6.25" width="83.5" height="83.5" rx="23" fill="none" stroke="#FFF4E8" stroke-opacity="0.13" stroke-width="1.5"/>

  <path d="M26 74V24H52C66.5 24 76 32 76 44.5C76 57 66.5 65 52 65H39" fill="none" stroke="#FFF1E6" stroke-width="10.5" stroke-linecap="round" stroke-linejoin="round"/>
  <path d="M50 74V34H66C78 34 85 40.6 85 50C85 59.4 78 66 66 66H58" fill="none" stroke="url(#red)" stroke-width="10.5" stroke-linecap="round" stroke-linejoin="round"/>

</svg>