<svg xmlns="http://www.w3.org/2000/svg" viewBox="0 0 96 96" role="img" aria-label="Parrish Projects refined website logo 05">
  <title>Parrish Projects refined website logo 05: Executive softer corners</title>
  <defs>
    <linearGradient id="bg" x1="12" y1="7" x2="86" y2="92" gradientUnits="userSpaceOnUse">
      <stop offset="0" stop-color="#331412"/>
      <stop offset="0.44" stop-color="#120B09"/>
      <stop offset="1" stop-color="#050403"/>
    </linearGradient>
    <radialGradient id="glow" cx="72" cy="20" r="72" gradientUnits="userSpaceOnUse">
      <stop offset="0" stop-color="#FF372F" stop-opacity="0.42"/>
      <stop offset="0.48" stop-color="#C71313" stop-opacity="0.11"/>
      <stop offset="1" stop-color="#C71313" stop-opacity="0"/>
    </radialGradient>
    <linearGradient id="red" x1="26" y1="20" x2="78" y2="76" gradientUnits="userSpaceOnUse">
      <stop offset="0" stop-color="#FF4A3F"/>
      <stop offset="1" stop-color="#B10E0E"/>
    </linearGradient>
    <filter id="softShadow" x="-24%" y="-24%" width="148%" height="148%" color-interpolation-filters="sRGB">
      <feDropShadow dx="0" dy="13" stdDeviation="8" flood-color="#090504" flood-opacity="0.35"/>
    </filter>
  </defs>
  <rect x="5" y="5" width="86" height="86" rx="28" fill="url(#bg)" filter="url(#softShadow)"/>
  <rect x="5" y="5" width="86" height="86" rx="28" fill="url(#glow)"/>
  <rect x="6.25" y="6.25" width="83.5" height="83.5" rx="27" fill="none" stroke="#FFF4E8" stroke-opacity="0.13" stroke-width="1.5"/>

  <path d="M29 73V24H51.5C64.5 24 73 31.3 73 43C73 54.7 64.5 62 51.5 62H41" fill="none" stroke="#FFF1E6" stroke-width="8.8" stroke-linecap="round" stroke-linejoin="round"/>
  <path d="M49.5 73V34.5H64.5C75.5 34.5 82.5 40.5 82.5 49.5C82.5 58.5 75.5 64.5 64.5 64.5H58.5" fill="none" stroke="url(#red)" stroke-width="8.8" stroke-linecap="round" stroke-linejoin="round"/>
  <path d="M22 76C36 83 62 83 76 72" stroke="#FF3E37" stroke-width="2.8" stroke-linecap="round" opacity="0.35"/>

</svg>