<svg xmlns="http://www.w3.org/2000/svg" viewBox="0 0 96 96" role="img" aria-label="Parrish Projects distinct website style logo 04">
  <title>Parrish Projects distinct website style logo 04: Cut-corner system mark</title>

  <defs>
    <linearGradient id="bg" x1="10" y1="6" x2="88" y2="92" gradientUnits="userSpaceOnUse">
      <stop offset="0" stop-color="#352419"/>
      <stop offset="0.48" stop-color="#17100B"/>
      <stop offset="1" stop-color="#070504"/>
    </linearGradient>
    <linearGradient id="bg2" x1="8" y1="92" x2="88" y2="4" gradientUnits="userSpaceOnUse">
      <stop offset="0" stop-color="#0B0705"/>
      <stop offset="0.55" stop-color="#24120D"/>
      <stop offset="1" stop-color="#4A1510"/>
    </linearGradient>
    <radialGradient id="glow" cx="70" cy="20" r="72" gradientUnits="userSpaceOnUse">
      <stop offset="0" stop-color="#FF5533" stop-opacity="0.32"/>
      <stop offset="0.48" stop-color="#B8350F" stop-opacity="0.10"/>
      <stop offset="1" stop-color="#B8350F" stop-opacity="0"/>
    </radialGradient>
    <linearGradient id="red" x1="30" y1="22" x2="78" y2="76" gradientUnits="userSpaceOnUse">
      <stop offset="0" stop-color="#FF7544"/>
      <stop offset="0.55" stop-color="#EA4D22"/>
      <stop offset="1" stop-color="#A8320E"/>
    </linearGradient>
    <filter id="shadow" x="-24%" y="-24%" width="148%" height="148%" color-interpolation-filters="sRGB">
      <feDropShadow dx="0" dy="14" stdDeviation="9" flood-color="#100B08" flood-opacity="0.33"/>
    </filter>
    <filter id="letter" x="-8%" y="-8%" width="116%" height="116%" color-interpolation-filters="sRGB">
      <feDropShadow dx="0" dy="2" stdDeviation="0.7" flood-color="#050302" flood-opacity="0.28"/>
    </filter>
  </defs>

  <path d="M24 5H72L91 24V72C91 82.5 82.5 91 72 91H24C13.5 91 5 82.5 5 72V24C5 13.5 13.5 5 24 5Z" fill="url(#bg)" filter="url(#shadow)"/>
  <path d="M24 5H72L91 24V72C91 82.5 82.5 91 72 91H24C13.5 91 5 82.5 5 72V24C5 13.5 13.5 5 24 5Z" fill="url(#glow)"/>
  <path d="M70 8L88 26" stroke="#FF7443" stroke-width="3.5" stroke-linecap="round" opacity="0.65"/>
  <text x="14" y="68" font-family="Fraunces, Georgia, serif" font-size="51" font-weight="900" letter-spacing="-5.9" fill="#F8EFE4" filter="url(#letter)">P</text>
  <text x="44" y="68" font-family="Fraunces, Georgia, serif" font-size="51" font-weight="900" letter-spacing="-5.9" fill="url(#red)" filter="url(#letter)">P</text>
  <path d="M22 76H74" stroke="#F8EFE4" stroke-opacity="0.12" stroke-width="2" stroke-linecap="round"/>

</svg>