<svg xmlns="http://www.w3.org/2000/svg" viewBox="0 0 96 96" role="img" aria-label="Parrish Projects logo direction 08">
  <title>Parrish Projects logo direction 08: Wordmark initials</title>

  <defs>
    <linearGradient id="bg" x1="10" y1="8" x2="90" y2="96" gradientUnits="userSpaceOnUse">
      <stop offset="0" stop-color="#2A1110"/>
      <stop offset="0.45" stop-color="#100B09"/>
      <stop offset="1" stop-color="#050403"/>
    </linearGradient>
    <radialGradient id="redGlow" cx="72" cy="24" r="70" gradientUnits="userSpaceOnUse">
      <stop offset="0" stop-color="#FF3030" stop-opacity="0.42"/>
      <stop offset="0.48" stop-color="#C81414" stop-opacity="0.10"/>
      <stop offset="1" stop-color="#C81414" stop-opacity="0"/>
    </radialGradient>
    <linearGradient id="red" x1="22" y1="18" x2="82" y2="82" gradientUnits="userSpaceOnUse">
      <stop offset="0" stop-color="#FF4940"/>
      <stop offset="1" stop-color="#A90F0F"/>
    </linearGradient>
    <filter id="shadow" x="-24%" y="-24%" width="148%" height="148%" color-interpolation-filters="sRGB">
      <feDropShadow dx="0" dy="14" stdDeviation="9" flood-color="#080504" flood-opacity="0.34"/>
    </filter>
  </defs>

  <rect x="5" y="5" width="86" height="86" rx="24" fill="url(#bg)" filter="url(#shadow)"/>
  <rect x="5" y="5" width="86" height="86" rx="24" fill="url(#redGlow)"/>
  <rect x="6" y="6" width="84" height="84" rx="23" fill="none" stroke="#FFF1E8" stroke-opacity="0.12" stroke-width="1.5"/>

  <path d="M19 73V23H42C55 23 63 30 63 41C63 52 55 59 42 59H31V73H19ZM31 34V49H42C47 49 50.5 46.4 50.5 41.5C50.5 36.6 47 34 42 34H31Z" fill="#FFF1E8"/>
  <path d="M45 73V23H67C79 23 87 30 87 41C87 52 79 59 67 59H57V73H45ZM57 34V49H67C71.5 49 74.8 46.4 74.8 41.5C74.8 36.6 71.5 34 67 34H57Z" fill="url(#red)"/>
  <path d="M19 79H87" stroke="#FF3A35" stroke-width="3" stroke-linecap="round" opacity="0.50"/>
</svg>