<svg xmlns="http://www.w3.org/2000/svg" viewBox="0 0 96 96" role="img" aria-label="Parrish Projects logo direction 04">
  <title>Parrish Projects logo direction 04: Abstract P mark</title>

  <defs>
    <linearGradient id="bg" x1="10" y1="8" x2="90" y2="96" gradientUnits="userSpaceOnUse">
      <stop offset="0" stop-color="#2A1110"/>
      <stop offset="0.45" stop-color="#100B09"/>
      <stop offset="1" stop-color="#050403"/>
    </linearGradient>
    <radialGradient id="redGlow" cx="72" cy="24" r="70" gradientUnits="userSpaceOnUse">
      <stop offset="0" stop-color="#FF3030" stop-opacity="0.42"/>
      <stop offset="0.48" stop-color="#C81414" stop-opacity="0.10"/>
      <stop offset="1" stop-color="#C81414" stop-opacity="0"/>
    </radialGradient>
    <linearGradient id="red" x1="22" y1="18" x2="82" y2="82" gradientUnits="userSpaceOnUse">
      <stop offset="0" stop-color="#FF4940"/>
      <stop offset="1" stop-color="#A90F0F"/>
    </linearGradient>
    <filter id="shadow" x="-24%" y="-24%" width="148%" height="148%" color-interpolation-filters="sRGB">
      <feDropShadow dx="0" dy="14" stdDeviation="9" flood-color="#080504" flood-opacity="0.34"/>
    </filter>
  </defs>

  <rect x="5" y="5" width="86" height="86" rx="24" fill="url(#bg)" filter="url(#shadow)"/>
  <rect x="5" y="5" width="86" height="86" rx="24" fill="url(#redGlow)"/>
  <rect x="6" y="6" width="84" height="84" rx="23" fill="none" stroke="#FFF1E8" stroke-opacity="0.12" stroke-width="1.5"/>

  <path d="M24 72V24H49C63 24 72 32 72 44C72 56 63 64 49 64H39" fill="none" stroke="#FFF1E8" stroke-width="11" stroke-linecap="round" stroke-linejoin="round"/>
  <path d="M49 24C68 25 82 37 82 52C82 66 70 76 53 76" fill="none" stroke="url(#red)" stroke-width="8" stroke-linecap="round"/>
  <circle cx="50" cy="44" r="8" fill="#0D0807" stroke="#FFF1E8" stroke-opacity="0.75" stroke-width="3"/>
</svg>