<svg xmlns="http://www.w3.org/2000/svg" viewBox="0 0 96 96" role="img" aria-label="Parrish Projects logo direction 09">
  <title>Parrish Projects logo direction 09: Circular badge</title>

  <defs>
    <linearGradient id="bg" x1="10" y1="8" x2="90" y2="96" gradientUnits="userSpaceOnUse">
      <stop offset="0" stop-color="#2A1110"/>
      <stop offset="0.45" stop-color="#100B09"/>
      <stop offset="1" stop-color="#050403"/>
    </linearGradient>
    <radialGradient id="redGlow" cx="72" cy="24" r="70" gradientUnits="userSpaceOnUse">
      <stop offset="0" stop-color="#FF3030" stop-opacity="0.42"/>
      <stop offset="0.48" stop-color="#C81414" stop-opacity="0.10"/>
      <stop offset="1" stop-color="#C81414" stop-opacity="0"/>
    </radialGradient>
    <linearGradient id="red" x1="22" y1="18" x2="82" y2="82" gradientUnits="userSpaceOnUse">
      <stop offset="0" stop-color="#FF4940"/>
      <stop offset="1" stop-color="#A90F0F"/>
    </linearGradient>
    <filter id="shadow" x="-24%" y="-24%" width="148%" height="148%" color-interpolation-filters="sRGB">
      <feDropShadow dx="0" dy="14" stdDeviation="9" flood-color="#080504" flood-opacity="0.34"/>
    </filter>
  </defs>

  <rect x="5" y="5" width="86" height="86" rx="24" fill="url(#bg)" filter="url(#shadow)"/>
  <rect x="5" y="5" width="86" height="86" rx="24" fill="url(#redGlow)"/>
  <rect x="6" y="6" width="84" height="84" rx="23" fill="none" stroke="#FFF1E8" stroke-opacity="0.12" stroke-width="1.5"/>

  <circle cx="48" cy="48" r="31" fill="#FFF1E8" opacity="0.08" stroke="#FFF1E8" stroke-opacity="0.25" stroke-width="2"/>
  <path d="M30 71V27H49C61 27 68.5 33.4 68.5 43.5C68.5 53.6 61 60 49 60H40" fill="none" stroke="#FFF1E8" stroke-width="8.5" stroke-linecap="round" stroke-linejoin="round"/>
  <path d="M50 71V34H63C72.8 34 79 39.5 79 48C79 56.5 72.8 62 63 62H58" fill="none" stroke="url(#red)" stroke-width="8.5" stroke-linecap="round" stroke-linejoin="round"/>
  <path d="M28 24C38 15 57 14 70 24" stroke="#FF3A35" stroke-width="3" stroke-linecap="round" opacity="0.55"/>
</svg>